<svg width="24" height="24" viewBox="0 0 24 24" fill="none" xmlns="http://www.w3.org/2000/svg">
<g id="Icon/&#235;&#154;&#171;&#236;&#150;&#180;&#235;&#189;&#149;">
<path id="Handle (Stroke)" d="M22.0607 1.93934C22.6464 2.52513 22.6464 3.47487 22.0607 4.06066L12.9963 13.125L10.5 13.5L10.875 11.0037L19.9393 1.93934C20.5251 1.35355 21.4749 1.35355 22.0607 1.93934Z" fill="#FBB8AB"/>
<path id="Union" d="M11.1213 18.7124C12.257 17.5767 12.4141 15.8329 11.5925 14.529L13.0607 13.0608L10.9393 10.9395L9.47116 12.4076C8.16723 11.586 6.4234 11.7431 5.28765 12.8788L4.14384 14.0226L4.06066 13.9395C3.47487 13.3537 2.52513 13.3537 1.93934 13.9395C1.35355 14.5252 1.35355 15.475 1.93934 16.0608L7.93934 22.0608C8.52513 22.6466 9.47487 22.6466 10.0607 22.0608C10.6464 21.475 10.6464 20.5252 10.0607 19.9395L9.97747 19.8563L11.1213 18.7124Z" fill="#F8312F"/>
</g>
</svg>
