<svg width="24" height="24" viewBox="0 0 24 24" fill="none" xmlns="http://www.w3.org/2000/svg">
<g id="Icon/&#235;&#185;&#151;&#236;&#158;&#144;&#235;&#163;&#168;">
<path id="BroomHead" d="M11.2498 15.135C11.2498 15.135 11.7486 14.9819 12.291 15.0738L14.1154 16.1544C14.5354 16.6444 14.5354 17.2613 14.5354 17.2613C14.5879 18.2981 14.1417 19.5231 13.9754 20.0963C13.5161 21.5181 12.4355 22.1306 11.2498 22.1612L5.25175 22.2006C4.90172 22.2181 4.12738 21.7894 4.93239 20.9931C5.80301 20.1531 8.73861 17.585 9.67923 16.3513C9.67923 16.3513 10.1824 15.5069 11.2498 15.135Z" fill="#FFB02E"/>
<path id="Vector 121 (Stroke)" d="M21.1397 1.73122C21.6333 2.01541 21.803 2.64591 21.5189 3.13949L14.3939 15.5145L12.6064 14.4854L19.7314 2.11037C20.0156 1.61679 20.6461 1.44704 21.1397 1.73122Z" fill="#7D4533"/>
<path id="Vector 122" d="M14.534 15.2579L12.7498 14.25C12.7498 14.25 12.3543 14.1651 12.1639 14.4668C11.868 14.9737 12.2195 15.1465 12.2195 15.1465L14.0184 16.1895C14.2645 16.3272 14.9881 15.9961 14.534 15.2579Z" fill="#9B9B9B"/>
<g id="Union">
<path d="M9.97344 15.8849C9.83676 15.8111 9.66613 15.8621 9.59235 15.9988C9.51856 16.1355 9.56955 16.3061 9.70623 16.3799L14.2817 18.8498C14.4183 18.9236 14.589 18.8726 14.6628 18.7359C14.7365 18.5992 14.6855 18.4286 14.5489 18.3548L9.97344 15.8849Z" fill="#F8312F"/>
<path d="M9.22309 16.8291C9.08613 16.7558 8.9157 16.8075 8.84241 16.9444C8.76912 17.0814 8.82073 17.2518 8.95769 17.3251L13.9546 19.9991C14.0915 20.0723 14.2619 20.0207 14.3352 19.8838C14.4085 19.7468 14.3569 19.5764 14.22 19.5031L9.22309 16.8291Z" fill="#F8312F"/>
</g>
</g>
</svg>
